$MeshFormat
2.2 0 8
$EndMeshFormat
$Nodes
10
1 -12.00000000 0.00000000 0.00000000
2 -11.50000000 0.00000000 0.00000000
3 -11.00000000 0.00000000 0.00000000
4 -10.50000000 0.00000000 0.00000000
5 -10.00000000 0.00000000 0.00000000
6 10.00000000 0.00000000 0.00000000
7 10.50000000 0.00000000 0.00000000
8 11.00000000 0.00000000 0.00000000
9 11.50000000 0.00000000 0.00000000
10 12.00000000 0.00000000 0.00000000
$EndNodes
$Elements
9
1 1 2 1 1 1 2
2 1 2 2 2 2 3
3 1 2 2 2 3 4
4 1 2 1 1 4 5
5 1 2 3 3 5 6
6 1 2 1 1 6 7
7 1 2 2 2 7 8
8 1 2 2 2 8 9
9 1 2 1 1 9 10
$EndElements
