# vtk DataFile Version 3.0
Gauss Point Voigt Data
ASCII
DATASET UNSTRUCTURED_GRID
POINTS 18 float
-1.189434e+01 0.000000e+00 0.000000e+00
-1.160566e+01 0.000000e+00 0.000000e+00
-1.139434e+01 0.000000e+00 0.000000e+00
-1.110566e+01 0.000000e+00 0.000000e+00
-1.089434e+01 0.000000e+00 0.000000e+00
-1.060566e+01 0.000000e+00 0.000000e+00
-1.039434e+01 0.000000e+00 0.000000e+00
-1.010566e+01 0.000000e+00 0.000000e+00
-5.773503e+00 0.000000e+00 0.000000e+00
5.773503e+00 0.000000e+00 0.000000e+00
1.010566e+01 0.000000e+00 0.000000e+00
1.039434e+01 0.000000e+00 0.000000e+00
1.060566e+01 0.000000e+00 0.000000e+00
1.089434e+01 0.000000e+00 0.000000e+00
1.110566e+01 0.000000e+00 0.000000e+00
1.139434e+01 0.000000e+00 0.000000e+00
1.160566e+01 0.000000e+00 0.000000e+00
1.189434e+01 0.000000e+00 0.000000e+00

CELLS 18 36
1 0
1 1
1 2
1 3
1 4
1 5
1 6
1 7
1 8
1 9
1 10
1 11
1 12
1 13
1 14
1 15
1 16
1 17

CELL_TYPES 18
1
1
1
1
1
1
1
1
1
1
1
1
1
1
1
1
1
1

POINT_DATA 18
SCALARS Eps_xx float 1
LOOKUP_TABLE default
6.829120e-04
6.829120e-04
6.829120e-04
6.829120e-04
6.829120e-04
6.829120e-04
6.829120e-04
6.829120e-04
6.829120e-04
6.829120e-04
6.829120e-04
6.829120e-04
6.829120e-04
6.829120e-04
6.829120e-04
6.829120e-04
6.829120e-04
6.829120e-04
SCALARS Eps_yy float 1
LOOKUP_TABLE default
-2.315506e-04
-2.315506e-04
-2.315506e-04
-2.315506e-04
-2.315506e-04
-2.315506e-04
-2.315506e-04
-2.315506e-04
-2.315506e-04
-2.315506e-04
-2.315506e-04
-2.315506e-04
-2.315506e-04
-2.315506e-04
-2.315506e-04
-2.315506e-04
-2.315506e-04
-2.315506e-04
SCALARS Eps_zz float 1
LOOKUP_TABLE default
-1.645497e-04
-1.645497e-04
-1.645497e-04
-1.645497e-04
-1.645497e-04
-1.645497e-04
-1.645497e-04
-1.645497e-04
-1.934406e-04
-1.934406e-04
-1.645497e-04
-1.645497e-04
-1.645497e-04
-1.645497e-04
-1.645497e-04
-1.645497e-04
-1.645497e-04
-1.645497e-04
SCALARS Eps_yz float 1
LOOKUP_TABLE default
0.000000e+00
0.000000e+00
0.000000e+00
0.000000e+00
0.000000e+00
0.000000e+00
0.000000e+00
0.000000e+00
0.000000e+00
0.000000e+00
0.000000e+00
0.000000e+00
0.000000e+00
0.000000e+00
0.000000e+00
0.000000e+00
0.000000e+00
0.000000e+00
SCALARS Eps_xz float 1
LOOKUP_TABLE default
0.000000e+00
0.000000e+00
0.000000e+00
0.000000e+00
0.000000e+00
0.000000e+00
0.000000e+00
0.000000e+00
0.000000e+00
0.000000e+00
0.000000e+00
0.000000e+00
0.000000e+00
0.000000e+00
0.000000e+00
0.000000e+00
0.000000e+00
0.000000e+00
SCALARS Eps_xy float 1
LOOKUP_TABLE default
-2.038897e-21
-1.998895e-21
-1.969611e-21
-1.929608e-21
-1.900324e-21
-1.860322e-21
-1.831038e-21
-1.791036e-21
-1.190717e-21
4.093814e-22
1.009700e-21
1.049702e-21
1.078986e-21
1.118989e-21
1.148273e-21
1.188275e-21
1.217559e-21
1.257561e-21
SCALARS Sig_xx float 1
LOOKUP_TABLE default
1.742950e+01
1.742950e+01
1.742950e+01
1.742950e+01
1.742950e+01
1.742950e+01
1.742950e+01
1.742950e+01
4.651410e+01
4.651410e+01
1.742950e+01
1.742950e+01
1.742950e+01
1.742950e+01
1.742950e+01
1.742950e+01
1.742950e+01
1.742950e+01
SCALARS Sig_yy float 1
LOOKUP_TABLE default
1.011380e+01
1.011380e+01
1.011380e+01
1.011380e+01
1.011380e+01
1.011380e+01
1.011380e+01
1.011380e+01
-2.022761e+00
-2.022761e+00
1.011380e+01
1.011380e+01
1.011380e+01
1.011380e+01
1.011380e+01
1.011380e+01
1.011380e+01
1.011380e+01
SCALARS Sig_zz float 1
LOOKUP_TABLE default
3.553707e-15
3.553687e-15
3.551754e-15
3.329729e-15
4.217922e-15
4.217941e-15
3.997695e-15
3.997675e-15
3.552714e-15
-1.065814e-14
4.662445e-15
4.662425e-15
9.992533e-15
9.992552e-15
4.446485e-16
2.226234e-16
5.772567e-15
5.772547e-15
SCALARS Sig_yz float 1
LOOKUP_TABLE default
0.000000e+00
0.000000e+00
0.000000e+00
0.000000e+00
0.000000e+00
0.000000e+00
0.000000e+00
0.000000e+00
0.000000e+00
0.000000e+00
0.000000e+00
0.000000e+00
0.000000e+00
0.000000e+00
0.000000e+00
0.000000e+00
0.000000e+00
0.000000e+00
SCALARS Sig_xz float 1
LOOKUP_TABLE default
0.000000e+00
0.000000e+00
0.000000e+00
0.000000e+00
0.000000e+00
0.000000e+00
0.000000e+00
0.000000e+00
0.000000e+00
0.000000e+00
0.000000e+00
0.000000e+00
0.000000e+00
0.000000e+00
0.000000e+00
0.000000e+00
0.000000e+00
0.000000e+00
SCALARS Sig_xy float 1
LOOKUP_TABLE default
-1.137030e+01
-1.137030e+01
1.137030e+01
1.137030e+01
1.137030e+01
1.137030e+01
-1.137030e+01
-1.137030e+01
-3.159980e-17
1.086435e-17
-1.137030e+01
-1.137030e+01
1.137030e+01
1.137030e+01
1.137030e+01
1.137030e+01
-1.137030e+01
-1.137030e+01
