# vtk DataFile Version 3.0
OpenSG-RM single-station dehom of 1dsg.yaml
ASCII
DATASET STRUCTURED_GRID
DIMENSIONS 1 1 45
POINTS 45 float
0.000000e+00 0.000000e+00 -7.615532e-02
0.000000e+00 0.000000e+00 -7.598020e-02
0.000000e+00 0.000000e+00 -7.572375e-02
0.000000e+00 0.000000e+00 -7.546730e-02
0.000000e+00 0.000000e+00 -7.529218e-02
0.000000e+00 0.000000e+00 -7.520282e-02
0.000000e+00 0.000000e+00 -7.502770e-02
0.000000e+00 0.000000e+00 -7.477125e-02
0.000000e+00 0.000000e+00 -7.451480e-02
0.000000e+00 0.000000e+00 -7.433968e-02
0.000000e+00 0.000000e+00 -7.425032e-02
0.000000e+00 0.000000e+00 -7.407520e-02
0.000000e+00 0.000000e+00 -7.381875e-02
0.000000e+00 0.000000e+00 -7.356230e-02
0.000000e+00 0.000000e+00 -7.338718e-02
0.000000e+00 0.000000e+00 -7.329782e-02
0.000000e+00 0.000000e+00 -7.312270e-02
0.000000e+00 0.000000e+00 -7.286625e-02
0.000000e+00 0.000000e+00 -7.260980e-02
0.000000e+00 0.000000e+00 -7.243468e-02
0.000000e+00 0.000000e+00 -6.559836e-02
0.000000e+00 0.000000e+00 -3.897979e-02
0.000000e+00 0.000000e+00 6.938894e-18
0.000000e+00 0.000000e+00 3.897979e-02
0.000000e+00 0.000000e+00 6.559836e-02
0.000000e+00 0.000000e+00 7.243468e-02
0.000000e+00 0.000000e+00 7.260980e-02
0.000000e+00 0.000000e+00 7.286625e-02
0.000000e+00 0.000000e+00 7.312270e-02
0.000000e+00 0.000000e+00 7.329782e-02
0.000000e+00 0.000000e+00 7.338718e-02
0.000000e+00 0.000000e+00 7.356230e-02
0.000000e+00 0.000000e+00 7.381875e-02
0.000000e+00 0.000000e+00 7.407520e-02
0.000000e+00 0.000000e+00 7.425032e-02
0.000000e+00 0.000000e+00 7.433968e-02
0.000000e+00 0.000000e+00 7.451480e-02
0.000000e+00 0.000000e+00 7.477125e-02
0.000000e+00 0.000000e+00 7.502770e-02
0.000000e+00 0.000000e+00 7.520282e-02
0.000000e+00 0.000000e+00 7.529218e-02
0.000000e+00 0.000000e+00 7.546730e-02
0.000000e+00 0.000000e+00 7.572375e-02
0.000000e+00 0.000000e+00 7.598020e-02
0.000000e+00 0.000000e+00 7.615532e-02
POINT_DATA 45
VECTORS disp float
0.000000e+00 0.000000e+00 6.105012e-05
0.000000e+00 0.000000e+00 6.095364e-05
0.000000e+00 0.000000e+00 6.081236e-05
0.000000e+00 0.000000e+00 6.067109e-05
0.000000e+00 0.000000e+00 6.057461e-05
0.000000e+00 0.000000e+00 6.053029e-05
0.000000e+00 0.000000e+00 6.045306e-05
0.000000e+00 0.000000e+00 6.033996e-05
0.000000e+00 0.000000e+00 6.022686e-05
0.000000e+00 0.000000e+00 6.014962e-05
0.000000e+00 0.000000e+00 6.010530e-05
0.000000e+00 0.000000e+00 6.000883e-05
0.000000e+00 0.000000e+00 5.986755e-05
0.000000e+00 0.000000e+00 5.972627e-05
0.000000e+00 0.000000e+00 5.962980e-05
0.000000e+00 0.000000e+00 5.958548e-05
0.000000e+00 0.000000e+00 5.950824e-05
0.000000e+00 0.000000e+00 5.939514e-05
0.000000e+00 0.000000e+00 5.928204e-05
0.000000e+00 0.000000e+00 5.920481e-05
0.000000e+00 0.000000e+00 5.363235e-05
0.000000e+00 0.000000e+00 3.186936e-05
0.000000e+00 0.000000e+00 -3.288680e-16
0.000000e+00 0.000000e+00 -3.186936e-05
0.000000e+00 0.000000e+00 -5.363235e-05
0.000000e+00 0.000000e+00 -5.920481e-05
0.000000e+00 0.000000e+00 -5.928204e-05
0.000000e+00 0.000000e+00 -5.939514e-05
0.000000e+00 0.000000e+00 -5.950824e-05
0.000000e+00 0.000000e+00 -5.958548e-05
0.000000e+00 0.000000e+00 -5.962980e-05
0.000000e+00 0.000000e+00 -5.972627e-05
0.000000e+00 0.000000e+00 -5.986755e-05
0.000000e+00 0.000000e+00 -6.000883e-05
0.000000e+00 0.000000e+00 -6.010530e-05
0.000000e+00 0.000000e+00 -6.014962e-05
0.000000e+00 0.000000e+00 -6.022686e-05
0.000000e+00 0.000000e+00 -6.033996e-05
0.000000e+00 0.000000e+00 -6.045306e-05
0.000000e+00 0.000000e+00 -6.053029e-05
0.000000e+00 0.000000e+00 -6.057461e-05
0.000000e+00 0.000000e+00 -6.067109e-05
0.000000e+00 0.000000e+00 -6.081236e-05
0.000000e+00 0.000000e+00 -6.095364e-05
0.000000e+00 0.000000e+00 -6.105012e-05
SCALARS S11 float 1
LOOKUP_TABLE default
2.346406e+08
2.346406e+08
2.346406e+08
2.346406e+08
2.346406e+08
-6.252499e+06
-6.252499e+06
-6.252499e+06
-6.252499e+06
-6.252499e+06
2.346406e+08
2.346406e+08
2.346406e+08
2.346406e+08
2.346406e+08
-6.252499e+06
-6.252499e+06
-6.252499e+06
-6.252499e+06
-6.252499e+06
2.074764e+05
2.074764e+05
2.074764e+05
2.074764e+05
2.074764e+05
-6.252499e+06
-6.252499e+06
-6.252499e+06
-6.252499e+06
-6.252499e+06
2.346406e+08
2.346406e+08
2.346406e+08
2.346406e+08
2.346406e+08
-6.252499e+06
-6.252499e+06
-6.252499e+06
-6.252499e+06
-6.252499e+06
2.346406e+08
2.346406e+08
2.346406e+08
2.346406e+08
2.346406e+08
SCALARS S22 float 1
LOOKUP_TABLE default
4.075329e+06
4.075329e+06
4.075329e+06
4.075329e+06
4.075329e+06
1.994254e+07
1.994254e+07
1.994254e+07
1.994254e+07
1.994254e+07
4.075329e+06
4.075329e+06
4.075329e+06
4.075329e+06
4.075329e+06
1.994254e+07
1.994254e+07
1.994254e+07
1.994254e+07
1.994254e+07
5.729395e+04
5.729395e+04
5.729395e+04
5.729395e+04
5.729395e+04
1.994254e+07
1.994254e+07
1.994254e+07
1.994254e+07
1.994254e+07
4.075329e+06
4.075329e+06
4.075329e+06
4.075329e+06
4.075329e+06
1.994254e+07
1.994254e+07
1.994254e+07
1.994254e+07
1.994254e+07
4.075329e+06
4.075329e+06
4.075329e+06
4.075329e+06
4.075329e+06
SCALARS S33 float 1
LOOKUP_TABLE default
4.759065e-06
-3.972259e-08
-3.879301e-07
-2.631252e-08
-2.993354e-06
1.428203e-06
-1.539753e-07
-6.378837e-07
-3.638213e-08
6.508856e-08
2.941600e-06
-2.773698e-06
-3.713344e-06
-2.803255e-06
-4.015416e-06
1.666203e-06
-1.782787e-06
-2.298964e-06
-1.351950e-06
-4.612303e-06
-2.105750e-06
-7.619284e-07
1.205685e-06
3.173088e-06
4.516773e-06
2.293180e-06
4.463450e-06
4.689924e-06
4.048760e-06
5.911414e-06
-4.318133e-06
1.138439e-06
2.658885e-06
3.315301e-06
4.080976e-06
-4.451364e-06
1.474854e-06
1.748832e-06
8.179224e-07
4.216671e-06
-5.629543e-06
5.337269e-07
1.105275e-06
5.088434e-07
2.356719e-06
SCALARS S12 float 1
LOOKUP_TABLE default
2.287231e-10
2.287231e-10
2.287231e-10
2.287231e-10
2.287231e-10
-1.278257e-09
-1.278257e-09
-1.278257e-09
-1.278257e-09
-1.278257e-09
2.287231e-10
2.287231e-10
2.287231e-10
2.287231e-10
2.287231e-10
-1.278257e-09
-1.278257e-09
-1.278257e-09
-1.278257e-09
-1.278257e-09
2.552713e-12
2.552713e-12
2.552713e-12
2.552713e-12
2.552713e-12
-1.278257e-09
-1.278257e-09
-1.278257e-09
-1.278257e-09
-1.278257e-09
2.287231e-10
2.287231e-10
2.287231e-10
2.287231e-10
2.287231e-10
-1.278257e-09
-1.278257e-09
-1.278257e-09
-1.278257e-09
-1.278257e-09
2.287231e-10
2.287231e-10
2.287231e-10
2.287231e-10
2.287231e-10
SCALARS S13 float 1
LOOKUP_TABLE default
0.000000e+00
0.000000e+00
0.000000e+00
0.000000e+00
0.000000e+00
0.000000e+00
0.000000e+00
0.000000e+00
0.000000e+00
0.000000e+00
0.000000e+00
0.000000e+00
0.000000e+00
0.000000e+00
0.000000e+00
0.000000e+00
0.000000e+00
0.000000e+00
0.000000e+00
0.000000e+00
0.000000e+00
0.000000e+00
0.000000e+00
0.000000e+00
0.000000e+00
0.000000e+00
0.000000e+00
0.000000e+00
0.000000e+00
0.000000e+00
0.000000e+00
0.000000e+00
0.000000e+00
0.000000e+00
0.000000e+00
0.000000e+00
0.000000e+00
0.000000e+00
0.000000e+00
0.000000e+00
0.000000e+00
0.000000e+00
0.000000e+00
0.000000e+00
0.000000e+00
SCALARS S23 float 1
LOOKUP_TABLE default
0.000000e+00
0.000000e+00
0.000000e+00
0.000000e+00
0.000000e+00
0.000000e+00
0.000000e+00
0.000000e+00
0.000000e+00
0.000000e+00
0.000000e+00
0.000000e+00
0.000000e+00
0.000000e+00
0.000000e+00
0.000000e+00
0.000000e+00
0.000000e+00
0.000000e+00
0.000000e+00
0.000000e+00
0.000000e+00
0.000000e+00
0.000000e+00
0.000000e+00
0.000000e+00
0.000000e+00
0.000000e+00
0.000000e+00
0.000000e+00
0.000000e+00
0.000000e+00
0.000000e+00
0.000000e+00
0.000000e+00
0.000000e+00
0.000000e+00
0.000000e+00
0.000000e+00
0.000000e+00
0.000000e+00
0.000000e+00
0.000000e+00
0.000000e+00
0.000000e+00
